<!-- Stackable logo mark (icon only, no wordmark). -->
<svg xmlns="http://www.w3.org/2000/svg" viewBox="0 0 165.7 169.05">
  <polygon points="0 14.65 0 38.13 82.97 23.78 82.97 0.29 0 14.65" style="fill: #0080bd" />
  <polygon points="0 106.48 0 129.97 82.97 115.61 82.97 92.13 0 106.48" style="fill: #0080bd" />
  <polygon points="82.98 23.78 165.7 37.35 165.7 13.87 82.98 0.29 82.98 23.78" style="fill: #b90069" />
  <polygon points="82.98 69.18 165.7 82.75 165.7 59.26 82.98 45.7 82.98 69.18" style="fill: #b90069" />
  <polygon points="82.98 169.05 165.7 169.05 165.7 150.72 82.98 137.15 82.98 169.05" style="fill: #b90069" />
  <polygon points="83 169.05 0.28 169.05 0.28 150.72 83 137.15 83 169.05" style="fill: #0080bd" />
  <polygon points="0 60.05 0 83.53 34.13 77.63 34.13 54.15 0 60.05" style="fill: #0080bd" />
  <polygon points="55.65 50.42 55.65 73.91 82.98 69.18 82.98 45.7 55.65 50.42" style="fill: #0080bd" />
  <polygon points="109.75 96.52 82.97 92.13 82.97 115.61 109.75 120.01 109.75 96.52" style="fill: #b90069" />
  <polygon points="165.7 37.35 131.52 31.74 131.52 53.66 165.7 37.35" style="fill: #245987" />
  <polygon points="165.7 82.75 131.52 77.14 131.52 99.01 165.7 82.75" style="fill: #245987" />
  <polygon points="165.7 129.09 131.52 123.49 131.52 145.19 165.7 129.09" style="fill: #245987" />
  <polygon points="0 38.13 34.13 54.15 34.09 32.23 0 38.13" style="fill: #245987" />
  <polygon points="0 83.53 34.13 100.6 34.13 77.44 0 83.53" style="fill: #245987" />
  <polygon points="0 129.97 34.13 145.16 34.09 124.09 0 129.97" style="fill: #245987" />
  <polygon points="165.7 129.09 165.7 104.61 131.52 99.01 131.52 123.49 165.7 129.09" style="fill: #b90069" />
</svg>
