<svg xmlns="http://www.w3.org/2000/svg" viewBox="0 0 165.7 169.05"><path fill="#0080bd" d="M0 14.65v23.48l82.97-14.35V.29L0 14.65zm0 91.83v23.49l82.97-14.36V92.13L0 106.48z"/><path fill="#b90069" d="M82.98 23.78l82.72 13.57V13.87L82.98.29v23.49zm0 45.4l82.72 13.57V59.26L82.98 45.7v23.48zm0 99.87h82.72v-18.33l-82.72-13.57v31.9z"/><path fill="#0080bd" d="M83 169.05H.28v-18.33L83 137.15v31.9zm-83-109v23.48l34.13-5.9V54.15L0 60.05zm55.65-9.63v23.49l27.33-4.73V45.7l-27.33 4.72z"/><path fill="#b90069" d="M109.75 96.52l-26.78-4.39v23.48l26.78 4.4V96.52z"/><path fill="#245987" d="M165.7 37.35l-34.18-5.61v21.92l34.18-16.31zm0 45.4l-34.18-5.61v21.87l34.18-16.26zm0 46.34l-34.18-5.6v21.7l34.18-16.1zM0 38.13l34.13 16.02-.04-21.92L0 38.13zm0 45.4l34.13 17.07V77.44L0 83.53zm0 46.44l34.13 15.19-.04-21.07L0 129.97z"/><path fill="#b90069" d="M165.7 129.09v-24.48l-34.18-5.6v24.48l34.18 5.6z"/></svg>
